<?xml version="1.0" encoding="utf-8"?>
<!-- Generator: Adobe Illustrator 25.0.1, SVG Export Plug-In . SVG Version: 6.00 Build 0)  -->
<svg version="1.1" id="Layer_1" xmlns="http://www.w3.org/2000/svg" xmlns:xlink="http://www.w3.org/1999/xlink" x="0px" y="0px"
	 viewBox="0 0 1366 768" style="enable-background:new 0 0 1366 768;" xml:space="preserve">
<style type="text/css">
	.st0{opacity:0.5;fill:#243E33;}
	.st1{opacity:0.75;fill:#E0EEC6;}
	.st2{opacity:0.5;fill:#7CA982;}
</style>
<g>
	<path class="st0" d="M716.47,455.07c32.87,93.35-62.81,203.79-188.43,273.23c-125.62,68.88-281.91,96.77-395.12,40.98
		C19,714.07-51.85,575.74-6.56,468.16C39.45,361.14,200.85,285.43,362.26,286C523.66,286,684.34,361.71,716.47,455.07z"/>
</g>
<path class="st0" d="M1311.49,48.54c87.83,74.88,122,219.99,78.05,313.98s-165.81,137.19-244.18,117.27
	c-78.58-20.27-113.67-103.67-140.61-200.6c-26.73-96.58-45.65-206.49,15.56-258.85C1082.09-31.88,1223.45-26.69,1311.49,48.54z"/>
<path class="st1" d="M1281.2,474.85c23.28,43.75,6.27,97.61-25.67,127.44c-31.64,29.84-78.2,35.65-134.31,40.21
	c-55.81,4.55-121.18,8.09-133.71-12.39c-12.24-20.23,28.35-64.48,60.89-112.78c32.83-48.55,57.6-101.15,101.78-110.76
	C1194.34,397.22,1257.92,430.85,1281.2,474.85z"/>
<path class="st1" d="M316.26,456.21c-56.85-39.71-65.56-103.74-39.63-151.89s86.06-80.29,139.07-115.29
	c52.92-35.29,98.54-74.02,177.58-96.17c79.39-22.58,192.97-29.14,241.75,10.84c49.13,39.56,33.99,125.81-18.21,203.88
	c-52.73,77.92-141.9,148.1-239.87,175.77C479.33,510.6,373.46,495.5,316.26,456.21z"/>
<path class="st2" d="M909.01,512.38c12.65,14.3,7.75,42.19,16.78,78.18c9.04,36.23,32.02,80.56,19.62,100.58
	c-12.65,20.02-60.67,15.49-108.7,15.25c-48.02-0.24-95.79,4.05-138.13-15.97c-42.6-20.02-79.52-64.12-80.04-108.69
	c-0.52-44.57,35.63-89.62,77.97-103.92c42.34-14.54,91.14,1.67,130.64,10.49C866.41,496.89,896.62,498.08,909.01,512.38z"/>
<path class="st2" d="M373.76,128.22c23.07,17.79,41.35,37.78,43.15,58.87c1.5,21.09-14.08,43.27-37.15,54.91
	c-22.77,11.64-53.03,12.74-92.58,19.55c-39.55,6.81-88.39,19.33-124.04,7.69c-35.65-11.64-58.13-47.45-68.01-90.5
	c-10.19-43.27-7.79-93.79,27.86-111.58c35.65-18.01,104.57-3.29,152.51,12.08C323.72,94.61,350.98,110.21,373.76,128.22z"/>
</svg>
